# xmcd CD database file generated by Grip 3.0.0
# 
# Track frame offsets:
#       183
#       16860
#       33090
#       58605
#       77880
#       94803
#       106785
#       129053
#       147258
#       167710
#       179093
#       198858
# 
# Disc length: 2839 seconds
# 
# Revision: 5
# Processed by: cddbd v1.4PL0 Copyright (c) Steve Scherf et al.
# Submitted via: Grip 3.0.0
# 
DISCID=920b150c
DTITLE=Henning Stærk - Smalltown Saturday Night
DYEAR=1992
DGENRE=Pop-Folk
TTITLE0=Small Town Saturday Night
TTITLE1=Claggin' On
TTITLE2=Am I losing You
TTITLE3=Nothing Happened Today
TTITLE4=You May Already Be A Winner
TTITLE5=Come On In My Kitchen
TTITLE6=Baby Baby Baby
TTITLE7=If I had The Brains I Was Born With
TTITLE8=Anybody's Burden
TTITLE9=No Love At All
TTITLE10=I Love Every Minute
TTITLE11=Call Me A Cab
EXTD=ID3G: 53
EXTT0=
EXTT1=
EXTT2=
EXTT3=Let's Turn Up The Jukebox\n
EXTT4=
EXTT5=
EXTT6=
EXTT7=
EXTT8=
EXTT9=
EXTT10=
EXTT11=
PLAYORDER=
